<?xml version="1.0" encoding="UTF-8"?><svg xmlns="http://www.w3.org/2000/svg" xmlns:xlink="http://www.w3.org/1999/xlink" contentScriptType="text/ecmascript" width="375pt" zoomAndPan="magnify" contentStyleType="text/css" viewBox="0 0 375 374.999991" height="374.999991pt" preserveAspectRatio="xMidYMid meet" version="1.2"><g xml:id="surface1" id="surface1"><path style=" stroke:none;fill-rule:evenodd;fill:rgb(100%,99.21875%,99.21875%);fill-opacity:1;" d="M 83.953125 199.5625 C 54.925781 196.042969 30.410156 169.648438 29.0625 140.46875 C 27.710938 111.285156 49.683594 82.742188 78.257812 76.566406 C 87.613281 74.542969 97.320312 74.6875 106.738281 72.976562 C 127.039062 69.292969 144.707031 57.300781 163.691406 49.222656 C 182.683594 41.148438 206.117188 37.460938 222.855469 49.523438 C 237.105469 59.789062 242.574219 78.640625 255.523438 90.5 C 272.4375 105.988281 298.523438 106.636719 317.34375 119.746094 C 341.1875 136.339844 347.265625 173.484375 329.960938 196.808594 C 322.941406 206.265625 313 213.265625 306.019531 222.753906 C 294.34375 238.628906 292.285156 259.363281 290.351562 278.96875 C 288.425781 298.582031 285.71875 319.386719 273.164062 334.578125 C 260.605469 349.777344 234.617188 355.453125 221.445312 340.785156 C 216.679688 335.488281 214.335938 328.519531 211.070312 322.1875 C 199.8125 300.3125 175.933594 285.511719 151.3125 285.164062 C 137.457031 284.960938 123.578125 288.96875 109.871094 286.917969 C 96.167969 284.871094 82.070312 273.140625 84.804688 259.5625 C 86.246094 252.40625 91.882812 246.929688 95.175781 240.414062 C 98.46875 233.898438 102.839844 201.867188 83.953125 199.5625 "/><path style=" stroke:none;fill-rule:nonzero;fill:rgb(0%,0%,0%);fill-opacity:1;" d="M 267.90625 142.164062 C 268.105469 142.199219 268.351562 141.941406 268.574219 141.820312 C 268.359375 141.570312 268.144531 141.320312 267.921875 141.074219 C 267.75 141.253906 267.574219 141.433594 267.402344 141.617188 L 267.410156 141.621094 C 267.402344 141.621094 267.402344 141.617188 267.402344 141.617188 C 267.566406 141.8125 267.710938 142.132812 267.90625 142.164062 "/><path style=" stroke:none;fill-rule:nonzero;fill:rgb(0%,0%,0%);fill-opacity:1;" d="M 126.71875 180.828125 C 126.757812 180.964844 127.117188 181.027344 127.328125 181.121094 C 127.40625 180.886719 127.484375 180.648438 127.558594 180.414062 C 127.339844 180.300781 127.125 180.191406 126.90625 180.085938 C 126.835938 180.335938 126.664062 180.605469 126.71875 180.828125 "/><path style=" stroke:none;fill-rule:nonzero;fill:rgb(0%,0%,0%);fill-opacity:1;" d="M 153.089844 172.117188 C 153.09375 172.011719 153.109375 171.902344 153.113281 171.796875 C 153.167969 171.816406 153.21875 171.84375 153.273438 171.863281 C 153.46875 171.476562 153.644531 171.089844 153.800781 170.683594 C 153.820312 170.636719 153.535156 170.414062 153.527344 170.421875 C 153.148438 170.769531 152.746094 171.101562 152.453125 171.507812 C 152.378906 171.605469 152.675781 171.964844 152.800781 172.203125 C 152.886719 172.167969 153.003906 172.148438 153.089844 172.117188 "/><path style=" stroke:none;fill-rule:nonzero;fill:rgb(0%,0%,0%);fill-opacity:1;" d="M 276.847656 158.996094 C 276.890625 158.957031 276.828125 158.679688 276.792969 158.679688 C 276.570312 158.660156 276.308594 158.609375 276.136719 158.707031 C 275.941406 158.816406 275.8125 159.039062 275.652344 159.222656 C 275.863281 159.300781 276.066406 159.40625 276.261719 159.382812 C 276.472656 159.363281 276.675781 159.152344 276.847656 158.996094 "/><path style=" stroke:none;fill-rule:nonzero;fill:rgb(0%,0%,0%);fill-opacity:1;" d="M 182.105469 188.808594 C 182.238281 188.761719 182.433594 188.75 182.480469 188.65625 C 182.714844 188.21875 182.917969 187.761719 183.101562 187.296875 C 183.121094 187.242188 182.839844 187.019531 182.828125 187.027344 C 182.453125 187.375 182.046875 187.707031 181.753906 188.121094 C 181.6875 188.210938 181.976562 188.574219 182.105469 188.808594 "/><path style=" stroke:none;fill-rule:nonzero;fill:rgb(0%,0%,0%);fill-opacity:1;" d="M 231.726562 236.097656 C 231.839844 235.941406 231.820312 235.53125 231.6875 235.386719 C 231.136719 234.777344 230.410156 234.816406 229.867188 235.4375 C 229.773438 235.542969 229.734375 235.6875 229.667969 235.8125 C 229.75 235.929688 229.800781 236.066406 229.898438 236.160156 C 230.515625 236.746094 231.261719 236.746094 231.726562 236.097656 "/><path style=" stroke:none;fill-rule:nonzero;fill:rgb(0%,0%,0%);fill-opacity:1;" d="M 274.859375 330.195312 C 274.429688 330.3125 273.917969 330.746094 273.773438 331.152344 C 273.609375 331.609375 274.335938 332.140625 274.980469 332.15625 C 275.476562 331.480469 275.953125 330.804688 276.421875 330.113281 C 275.882812 330.097656 275.351562 330.066406 274.859375 330.195312 "/><path style=" stroke:none;fill-rule:nonzero;fill:rgb(0%,0%,0%);fill-opacity:1;" d="M 119.851562 202.710938 C 119.835938 201.78125 119.816406 200.84375 119.796875 199.90625 C 119.566406 199.867188 119.332031 199.828125 119.101562 199.796875 C 118.769531 200.367188 118.34375 200.902344 118.132812 201.519531 C 117.765625 202.578125 118.140625 202.828125 119.851562 202.710938 "/><path style=" stroke:none;fill-rule:nonzero;fill:rgb(0%,0%,0%);fill-opacity:1;" d="M 232.007812 317.878906 C 231.8125 318.46875 232.152344 318.945312 232.777344 318.992188 C 233.070312 319.011719 233.390625 318.691406 233.960938 318.382812 C 233.488281 317.90625 233.203125 317.488281 232.800781 317.265625 C 232.675781 317.199219 232.101562 317.597656 232.007812 317.878906 "/><path style=" stroke:none;fill-rule:nonzero;fill:rgb(0%,0%,0%);fill-opacity:1;" d="M 203.929688 192.941406 C 203.871094 193.816406 202.402344 194.035156 203.167969 195.273438 C 203.46875 195.246094 203.738281 195.257812 203.992188 195.199219 C 204.257812 195.132812 204.519531 195.042969 204.746094 194.898438 C 205.742188 194.28125 205.632812 193.9375 203.929688 192.941406 "/><path style=" stroke:none;fill-rule:nonzero;fill:rgb(0%,0%,0%);fill-opacity:1;" d="M 96.671875 274.40625 C 96.671875 274.40625 96.683594 274.386719 96.683594 274.394531 L 96.679688 274.394531 L 96.671875 274.40625 "/><path style=" stroke:none;fill-rule:nonzero;fill:rgb(0%,0%,0%);fill-opacity:1;" d="M 311.539062 125.480469 C 311.722656 125.449219 311.855469 125.128906 312.011719 124.929688 C 311.734375 124.726562 311.488281 124.472656 311.179688 124.355469 C 311.09375 124.320312 310.859375 124.695312 310.1875 125.414062 C 310.777344 125.460938 311.171875 125.546875 311.539062 125.480469 "/><path style=" stroke:none;fill-rule:nonzero;fill:rgb(0%,0%,0%);fill-opacity:1;" d="M 88.34375 273.863281 C 88.257812 273.84375 88.179688 273.816406 88.085938 273.796875 C 88.191406 273.949219 88.296875 274.09375 88.40625 274.242188 C 88.40625 274.234375 88.414062 274.234375 88.414062 274.230469 C 88.453125 274.132812 88.375 273.988281 88.34375 273.863281 "/><path style=" stroke:none;fill-rule:nonzero;fill:rgb(0%,0%,0%);fill-opacity:1;" d="M 134.746094 247.8125 C 134.164062 247.433594 133.585938 247.054688 133.148438 246.761719 C 133.894531 245.0625 134.988281 243.976562 134.417969 242.300781 C 133.449219 242.207031 132.433594 242.117188 131.417969 242.019531 C 131.09375 243.441406 130.828125 244.644531 130.550781 245.851562 L 130.441406 245.730469 C 130.945312 246.394531 131.488281 247.023438 131.921875 247.714844 C 132.210938 248.1875 132.203125 248.886719 132.558594 249.242188 C 133.003906 249.679688 133.671875 249.976562 134.292969 250.117188 C 134.339844 250.132812 134.398438 250.132812 134.457031 250.125 C 134.367188 250.09375 134.273438 250.058594 134.183594 250.027344 C 134.222656 249.949219 134.253906 249.863281 134.292969 249.777344 C 134.351562 249.890625 134.410156 250.007812 134.46875 250.117188 C 134.777344 250.074219 135.183594 249.8125 135.335938 249.5625 C 135.769531 248.835938 135.402344 248.246094 134.746094 247.8125 "/><path style=" stroke:none;fill-rule:nonzero;fill:rgb(0%,0%,0%);fill-opacity:1;" d="M 205.964844 250.015625 C 206.070312 250.40625 206.675781 250.667969 207.054688 250.996094 C 207.546875 250.40625 208.042969 249.8125 208.738281 248.980469 C 208.015625 248.601562 207.578125 248.175781 207.140625 248.175781 C 206.371094 248.175781 205.742188 249.136719 205.964844 250.015625 "/><path style=" stroke:none;fill-rule:nonzero;fill:rgb(0%,0%,0%);fill-opacity:1;" d="M 155.675781 128.132812 C 155.113281 128.789062 155.578125 129.382812 155.925781 129.953125 C 156.0625 130.1875 156.28125 130.371094 156.625 130.753906 C 156.941406 130.359375 157.054688 130.269531 157.097656 130.148438 C 157.425781 129.277344 157.347656 128.507812 156.445312 128.042969 C 156.234375 128.132812 156.015625 128.21875 155.808594 128.304688 C 155.761719 128.25 155.714844 128.191406 155.675781 128.132812 "/><path style=" stroke:none;fill-rule:nonzero;fill:rgb(0%,0%,0%);fill-opacity:1;" d="M 122.292969 147.679688 C 121.875 147.304688 121.644531 147.019531 121.351562 146.878906 C 121.234375 146.820312 120.789062 147.109375 120.800781 147.183594 C 120.867188 147.527344 121.042969 147.855469 121.179688 148.191406 C 121.480469 148.050781 121.785156 147.910156 122.292969 147.679688 "/><path style=" stroke:none;fill-rule:nonzero;fill:rgb(0%,0%,0%);fill-opacity:1;" d="M 179.601562 258.140625 C 179.78125 258.257812 179.945312 258.394531 180.140625 258.488281 C 180.179688 258.507812 180.304688 258.332031 180.390625 258.25 C 180.207031 258.109375 180.023438 257.96875 179.839844 257.832031 C 179.761719 257.929688 179.679688 258.035156 179.601562 258.140625 "/><path style=" stroke:none;fill-rule:nonzero;fill:rgb(0%,0%,0%);fill-opacity:1;" d="M 286.5 107.277344 C 286.328125 107.121094 286.117188 106.8125 286 106.84375 C 285.726562 106.921875 285.503906 107.164062 285.253906 107.335938 C 285.46875 107.453125 285.6875 107.566406 285.894531 107.675781 C 286.097656 107.539062 286.296875 107.410156 286.5 107.277344 "/><path style=" stroke:none;fill-rule:nonzero;fill:rgb(0%,0%,0%);fill-opacity:1;" d="M 155.78125 278.917969 C 155.917969 279.089844 156.140625 279.441406 156.195312 279.414062 C 156.507812 279.269531 156.777344 279.042969 157.113281 278.804688 C 156.851562 278.589844 156.625 278.316406 156.542969 278.355469 C 156.253906 278.480469 156.03125 278.722656 155.78125 278.917969 "/><path style=" stroke:none;fill-rule:nonzero;fill:rgb(0%,0%,0%);fill-opacity:1;" d="M 146.121094 127.328125 C 146.214844 127.558594 146.351562 127.765625 146.476562 127.984375 C 146.664062 127.804688 146.847656 127.628906 147.050781 127.433594 C 146.84375 127.316406 146.652344 127.171875 146.429688 127.097656 C 146.359375 127.078125 146.109375 127.296875 146.121094 127.328125 "/><path style=" stroke:none;fill-rule:nonzero;fill:rgb(0%,0%,0%);fill-opacity:1;" d="M 155.675781 128.132812 C 155.714844 128.191406 155.761719 128.25 155.808594 128.304688 C 156.015625 128.21875 156.234375 128.132812 156.445312 128.042969 C 156.363281 127.949219 156.265625 127.773438 156.207031 127.78125 C 155.992188 127.824219 155.789062 127.929688 155.578125 128.015625 C 155.609375 128.054688 155.636719 128.09375 155.675781 128.132812 "/><path style=" stroke:none;fill-rule:nonzero;fill:rgb(0%,0%,0%);fill-opacity:1;" d="M 257.265625 170.492188 C 257.476562 170.914062 257.902344 171.226562 258.25 171.582031 C 258.492188 171.304688 258.738281 171.035156 259.164062 170.570312 C 258.675781 170.207031 258.320312 169.859375 257.894531 169.695312 C 257.789062 169.65625 257.191406 170.355469 257.265625 170.492188 "/><path style=" stroke:none;fill-rule:nonzero;fill:rgb(0%,0%,0%);fill-opacity:1;" d="M 169.019531 152.878906 C 169.339844 152.519531 169.792969 152.222656 169.773438 151.960938 C 169.753906 151.679688 169.332031 151.3125 169.007812 151.195312 C 168.46875 151.011719 167.867188 151.621094 168.109375 152.085938 C 168.265625 152.386719 168.644531 152.570312 169.019531 152.878906 "/><path style=" stroke:none;fill-rule:nonzero;fill:rgb(0%,0%,0%);fill-opacity:1;" d="M 180.46875 117.832031 C 180.777344 117.765625 181.039062 117.519531 181.5625 117.199219 C 181.003906 116.898438 180.644531 116.542969 180.421875 116.613281 C 180.167969 116.699219 180.015625 117.152344 179.890625 117.472656 C 179.871094 117.523438 180.296875 117.867188 180.46875 117.832031 "/><path style=" stroke:none;fill-rule:nonzero;fill:rgb(0%,0%,0%);fill-opacity:1;" d="M 169.726562 65.023438 C 169.601562 64.820312 169.503906 64.476562 169.347656 64.445312 C 169.136719 64.414062 168.875 64.609375 168.632812 64.699219 C 168.816406 64.96875 168.992188 65.238281 169.175781 65.507812 C 169.359375 65.34375 169.542969 65.1875 169.726562 65.023438 "/><path style=" stroke:none;fill-rule:nonzero;fill:rgb(0%,0%,0%);fill-opacity:1;" d="M 66.820312 84.804688 C 67.109375 84.832031 67.339844 85 67.148438 85.425781 C 67.253906 85.347656 67.457031 85.230469 67.445312 85.195312 C 67.359375 84.980469 67.222656 84.777344 67.101562 84.574219 C 67.011719 84.652344 66.847656 84.75 66.820312 84.804688 "/><path style=" stroke:none;fill-rule:nonzero;fill:rgb(0%,0%,0%);fill-opacity:1;" d="M 205.816406 52.90625 C 202.335938 51.917969 202.160156 51.992188 202.277344 54.367188 C 203.632812 54.367188 204.890625 54.289062 205.816406 52.90625 "/><path style=" stroke:none;fill-rule:nonzero;fill:rgb(0%,0%,0%);fill-opacity:1;" d="M 153.527344 89.789062 C 153.660156 90.179688 154.253906 90.636719 154.667969 90.652344 C 154.988281 90.664062 155.617188 90.007812 155.585938 89.703125 C 155.546875 89.316406 154.980469 88.976562 154.445312 88.390625 C 154.386719 88.476562 154.328125 88.5625 154.269531 88.640625 C 154.269531 88.640625 154.269531 88.632812 154.269531 88.621094 C 153.867188 89.144531 153.449219 89.550781 153.527344 89.789062 "/><path style=" stroke:none;fill-rule:nonzero;fill:rgb(0%,0%,0%);fill-opacity:1;" d="M 174.367188 286.507812 C 174.050781 285.90625 173.933594 285.542969 173.691406 285.300781 C 173.582031 285.199219 173.03125 285.308594 173.015625 285.386719 C 172.949219 285.714844 172.886719 286.1875 173.0625 286.375 C 173.234375 286.558594 173.710938 286.460938 174.367188 286.507812 "/><path style=" stroke:none;fill-rule:nonzero;fill:rgb(0%,0%,0%);fill-opacity:1;" d="M 47.574219 137.515625 C 47.667969 137.824219 48.132812 138.199219 48.453125 138.210938 C 48.742188 138.222656 49.050781 137.792969 49.351562 137.5625 C 49.027344 137.195312 48.707031 136.835938 48.242188 136.320312 C 47.902344 136.894531 47.503906 137.28125 47.574219 137.515625 "/><path style=" stroke:none;fill-rule:nonzero;fill:rgb(0%,0%,0%);fill-opacity:1;" d="M 277.246094 264.96875 C 277.070312 264.839844 276.597656 264.871094 276.355469 264.984375 C 276.347656 265.375 276.335938 265.777344 276.320312 266.175781 C 277.035156 266.921875 277.855469 267.578125 278.636719 268.265625 C 278.878906 266.660156 278.214844 265.695312 277.246094 264.96875 "/><path style=" stroke:none;fill-rule:nonzero;fill:rgb(0%,0%,0%);fill-opacity:1;" d="M 326.046875 161.582031 C 326.488281 161.488281 326.886719 161.183594 327.574219 160.808594 C 326.953125 160.382812 326.632812 159.988281 326.367188 160.023438 C 326.335938 160.128906 326.34375 160.285156 326.269531 160.332031 C 326.199219 160.375 326.054688 160.324219 325.949219 160.316406 C 325.960938 160.273438 325.976562 160.230469 325.996094 160.1875 C 325.78125 160.332031 325.582031 160.535156 325.53125 160.730469 C 325.464844 160.960938 325.921875 161.609375 326.046875 161.582031 "/><path style=" stroke:none;fill-rule:nonzero;fill:rgb(0%,0%,0%);fill-opacity:1;" d="M 247.199219 87.050781 C 247.257812 86.9375 246.984375 86.488281 246.859375 86.480469 C 246.558594 86.480469 246.242188 86.644531 245.933594 86.742188 C 246.046875 87.078125 246.15625 87.410156 246.347656 87.953125 C 246.734375 87.554688 247.035156 87.34375 247.199219 87.050781 "/><path style=" stroke:none;fill-rule:nonzero;fill:rgb(0%,0%,0%);fill-opacity:1;" d="M 186.757812 271.800781 C 187.058594 271.785156 187.347656 271.609375 187.644531 271.492188 C 187.472656 271.09375 187.367188 270.855469 187.269531 270.621094 C 186.980469 270.824219 186.667969 270.996094 186.4375 271.242188 C 186.386719 271.296875 186.652344 271.804688 186.757812 271.800781 "/><path style=" stroke:none;fill-rule:nonzero;fill:rgb(0%,0%,0%);fill-opacity:1;" d="M 192.257812 136.257812 C 192.484375 136.304688 192.714844 136.320312 192.9375 136.34375 C 192.957031 136.21875 192.984375 136.097656 193.003906 135.964844 C 192.761719 135.953125 192.519531 135.9375 192.277344 135.925781 C 192.269531 136.042969 192.242188 136.253906 192.257812 136.257812 "/><path style=" stroke:none;fill-rule:nonzero;fill:rgb(0%,0%,0%);fill-opacity:1;" d="M 59.835938 111.820312 C 59.875 111.789062 59.90625 111.761719 59.945312 111.730469 C 59.722656 111.585938 59.527344 111.449219 59.316406 111.34375 C 59.292969 111.332031 59.089844 111.566406 59.113281 111.617188 C 59.191406 111.808594 59.34375 111.964844 59.46875 112.136719 C 59.519531 112.089844 59.574219 112.042969 59.632812 112 C 59.699219 111.933594 59.769531 111.875 59.835938 111.820312 "/><path style=" stroke:none;fill-rule:nonzero;fill:rgb(0%,0%,0%);fill-opacity:1;" d="M 134.183594 250.027344 C 134.273438 250.058594 134.367188 250.09375 134.457031 250.125 C 134.464844 250.125 134.46875 250.125 134.476562 250.132812 C 134.476562 250.125 134.476562 250.125 134.46875 250.117188 C 134.410156 250.007812 134.351562 249.890625 134.292969 249.777344 C 134.253906 249.863281 134.222656 249.949219 134.183594 250.027344 "/><path style=" stroke:none;fill-rule:nonzero;fill:rgb(0%,0%,0%);fill-opacity:1;" d="M 259.953125 260.414062 C 259.855469 260.375 259.753906 260.335938 259.652344 260.292969 C 259.558594 260.355469 259.460938 260.40625 259.363281 260.464844 C 259.421875 260.550781 259.472656 260.628906 259.53125 260.714844 C 259.671875 260.617188 259.8125 260.511719 259.953125 260.414062 "/><path style=" stroke:none;fill-rule:nonzero;fill:rgb(0%,0%,0%);fill-opacity:1;" d="M 154.445312 88.390625 C 154.398438 88.300781 154.359375 88.203125 154.320312 88.109375 C 154.308594 88.289062 154.289062 88.457031 154.269531 88.621094 C 154.269531 88.632812 154.269531 88.640625 154.269531 88.640625 C 154.328125 88.5625 154.386719 88.476562 154.445312 88.390625 "/><path style=" stroke:none;fill-rule:nonzero;fill:rgb(0%,0%,0%);fill-opacity:1;" d="M 241.675781 126.0625 C 241.503906 126.339844 241.570312 126.757812 241.539062 127.117188 C 241.695312 127.222656 241.851562 127.328125 242.015625 127.425781 C 242.207031 127.074219 242.46875 126.738281 242.574219 126.359375 C 242.664062 126.050781 242.574219 125.691406 242.558594 125.351562 C 242.257812 125.585938 241.859375 125.757812 241.675781 126.0625 "/><path style=" stroke:none;fill-rule:nonzero;fill:rgb(0%,0%,0%);fill-opacity:1;" d="M 166.738281 232 C 166.324219 231.726562 166.058594 231.488281 165.742188 231.378906 C 165.664062 231.351562 165.269531 231.824219 165.316406 231.949219 C 165.453125 232.289062 165.75 232.5625 165.976562 232.863281 C 166.195312 232.621094 166.40625 232.375 166.738281 232 "/><path style=" stroke:none;fill-rule:nonzero;fill:rgb(0%,0%,0%);fill-opacity:1;" d="M 283.058594 124.238281 C 282.710938 123.980469 282.410156 123.753906 282.09375 123.550781 C 282.082031 123.542969 281.847656 123.792969 281.871094 123.835938 C 282.035156 124.125 282.234375 124.402344 282.457031 124.644531 C 282.480469 124.664062 282.789062 124.421875 283.058594 124.238281 "/><path style=" stroke:none;fill-rule:nonzero;fill:rgb(0%,0%,0%);fill-opacity:1;" d="M 200.394531 150.03125 C 200.605469 149.9375 200.78125 149.769531 200.972656 149.628906 C 200.796875 149.492188 200.617188 149.355469 200.441406 149.210938 C 200.3125 149.40625 200.179688 149.605469 200.082031 149.8125 C 200.074219 149.839844 200.332031 150.054688 200.394531 150.03125 "/><path style=" stroke:none;fill-rule:nonzero;fill:rgb(0%,0%,0%);fill-opacity:1;" d="M 228.367188 274.957031 C 228.367188 274.9375 228.082031 274.910156 227.933594 274.890625 C 227.933594 275.460938 227.179688 275.996094 228.03125 276.816406 C 228.449219 276.1875 228.34375 275.550781 228.367188 274.957031 "/><path style=" stroke:none;fill-rule:nonzero;fill:rgb(0%,0%,0%);fill-opacity:1;" d="M 218.75 269.421875 C 218.667969 269.34375 218.582031 269.257812 218.503906 269.175781 C 218.390625 269.296875 218.273438 269.421875 218.160156 269.546875 C 218.265625 269.585938 218.378906 269.625 218.488281 269.660156 C 218.574219 269.582031 218.660156 269.5 218.75 269.421875 "/><path style=" stroke:none;fill-rule:nonzero;fill:rgb(0%,0%,0%);fill-opacity:1;" d="M 192.957031 102.988281 C 193.867188 103.035156 195.363281 101.546875 195.691406 100.210938 C 195.730469 100.046875 195.433594 99.726562 195.226562 99.609375 C 195.121094 99.558594 194.765625 99.765625 194.679688 99.9375 C 194.558594 100.171875 194.597656 100.488281 194.523438 100.761719 C 194.296875 101.621094 193.582031 101.847656 192.878906 101.652344 C 192.433594 101.535156 191.980469 101.054688 191.757812 100.625 C 191.515625 100.164062 191.554688 99.5625 191.328125 98.144531 C 190.566406 99.230469 190.160156 99.550781 190.179688 99.839844 C 190.277344 101.640625 191.464844 102.921875 192.957031 102.988281 "/><path style=" stroke:none;fill-rule:nonzero;fill:rgb(0%,0%,0%);fill-opacity:1;" d="M 109.445312 240.425781 C 109.707031 240.828125 110.203125 241.0625 110.609375 241.363281 C 110.800781 241.035156 110.988281 240.703125 111.335938 240.105469 C 110.800781 239.839844 110.394531 239.53125 109.953125 239.484375 C 109.804688 239.472656 109.34375 240.277344 109.445312 240.425781 "/><path style=" stroke:none;fill-rule:nonzero;fill:rgb(0%,0%,0%);fill-opacity:1;" d="M 77.601562 89.871094 C 76.898438 89.5 75.648438 90.59375 75.695312 91.449219 C 75.898438 91.628906 76.1875 91.992188 76.277344 91.953125 C 76.875 91.667969 77.484375 91.34375 77.960938 90.90625 C 78.078125 90.800781 77.851562 90.003906 77.601562 89.871094 "/><path style=" stroke:none;fill-rule:nonzero;fill:rgb(0%,0%,0%);fill-opacity:1;" d="M 94.4375 126.929688 C 94.273438 127.066406 94.121094 127.519531 94.207031 127.628906 C 94.574219 128.085938 95.03125 128.480469 95.660156 129.097656 C 95.925781 128.355469 96.207031 127.964844 96.132812 127.65625 C 95.96875 126.988281 94.894531 126.554688 94.4375 126.929688 "/><path style=" stroke:none;fill-rule:nonzero;fill:rgb(0%,0%,0%);fill-opacity:1;" d="M 241.078125 148.742188 C 240.992188 148.65625 240.910156 148.570312 240.824219 148.492188 C 240.699219 148.773438 240.601562 148.996094 240.4375 149.152344 C 240.621094 149.191406 240.863281 148.890625 241.078125 148.742188 "/><path style=" stroke:none;fill-rule:nonzero;fill:rgb(0%,0%,0%);fill-opacity:1;" d="M 240.332031 148.007812 C 240.320312 148.019531 240.304688 148.039062 240.292969 148.050781 C 240.324219 148.058594 240.359375 148.058594 240.390625 148.058594 C 240.371094 148.046875 240.351562 148.027344 240.332031 148.007812 "/><path style=" stroke:none;fill-rule:nonzero;fill:rgb(0%,0%,0%);fill-opacity:1;" d="M 66.820312 84.804688 C 66.714844 84.789062 66.597656 84.804688 66.492188 84.832031 C 66.179688 84.910156 65.9375 85.234375 65.648438 85.457031 C 65.921875 85.78125 66.191406 86.160156 66.246094 86.132812 C 66.578125 85.949219 67.003906 85.742188 67.148438 85.425781 C 67.339844 85 67.109375 84.832031 66.820312 84.804688 "/><path style=" stroke:none;fill-rule:nonzero;fill:rgb(0%,0%,0%);fill-opacity:1;" d="M 240.4375 149.152344 C 240.601562 148.996094 240.699219 148.773438 240.824219 148.492188 C 240.882812 148.367188 240.933594 148.242188 241.007812 148.097656 C 240.765625 148.085938 240.566406 148.074219 240.390625 148.058594 C 240.359375 148.058594 240.324219 148.058594 240.292969 148.050781 C 240.09375 148.046875 239.925781 148.03125 239.753906 148.019531 C 239.75 148.367188 239.695312 148.726562 239.78125 149.046875 C 239.800781 149.144531 240.339844 149.25 240.4375 149.152344 "/><path style=" stroke:none;fill-rule:nonzero;fill:rgb(0%,0%,0%);fill-opacity:1;" d="M 60.097656 111.703125 C 60.011719 111.703125 59.925781 111.757812 59.835938 111.820312 C 59.769531 111.875 59.699219 111.933594 59.632812 112 C 59.574219 112.042969 59.519531 112.089844 59.46875 112.136719 C 59.644531 112.3125 59.835938 112.632812 60 112.621094 C 60.230469 112.609375 60.445312 112.339844 60.667969 112.183594 C 60.476562 112.011719 60.292969 111.703125 60.097656 111.703125 "/><path style=" stroke:none;fill-rule:nonzero;fill:rgb(0%,0%,0%);fill-opacity:1;" d="M 310.554688 175.921875 C 310.863281 175.910156 311.144531 175.507812 311.566406 175.1875 C 311.171875 174.855469 310.917969 174.453125 310.613281 174.421875 C 310.03125 174.355469 309.554688 174.738281 309.679688 175.359375 C 309.722656 175.613281 310.261719 175.941406 310.554688 175.921875 "/><path style=" stroke:none;fill-rule:nonzero;fill:rgb(0%,0%,0%);fill-opacity:1;" d="M 302.402344 197.476562 C 302.238281 197.164062 302.101562 196.835938 301.894531 196.5625 C 301.875 196.527344 301.316406 196.757812 301.316406 196.855469 C 301.316406 197.191406 301.464844 197.523438 301.570312 197.878906 C 301.9375 197.699219 302.167969 197.589844 302.402344 197.476562 "/><path style=" stroke:none;fill-rule:nonzero;fill:rgb(0%,0%,0%);fill-opacity:1;" d="M 293.027344 226.792969 C 293.742188 226.808594 294.558594 226.0625 294.335938 225.476562 C 294.121094 224.929688 293.550781 224.523438 292.902344 223.78125 C 292.296875 224.574219 291.644531 225.050781 291.597656 225.582031 C 291.539062 226.335938 292.21875 226.78125 293.027344 226.792969 "/><path style=" stroke:none;fill-rule:nonzero;fill:rgb(0%,0%,0%);fill-opacity:1;" d="M 120.019531 249.261719 C 119.363281 249.203125 118.703125 250 118.894531 250.542969 C 119.019531 250.90625 119.300781 251.207031 119.746094 251.898438 C 120.316406 250.90625 120.667969 250.441406 120.828125 249.910156 C 120.871094 249.777344 120.320312 249.289062 120.019531 249.261719 "/><path style=" stroke:none;fill-rule:nonzero;fill:rgb(0%,0%,0%);fill-opacity:1;" d="M 315.9375 205.597656 C 315.832031 205.375 315.726562 205.160156 315.601562 204.898438 C 315.464844 205.066406 315.300781 205.199219 315.222656 205.375 C 315.183594 205.453125 315.292969 205.714844 315.328125 205.714844 C 315.53125 205.703125 315.734375 205.644531 315.9375 205.597656 "/><path style=" stroke:none;fill-rule:nonzero;fill:rgb(0%,0%,0%);fill-opacity:1;" d="M 267.402344 141.617188 C 267.402344 141.617188 267.402344 141.621094 267.410156 141.621094 L 267.402344 141.617188 "/><path style=" stroke:none;fill-rule:nonzero;fill:rgb(0%,0%,0%);fill-opacity:1;" d="M 326.269531 160.332031 C 326.34375 160.285156 326.335938 160.128906 326.367188 160.023438 C 326.285156 159.964844 326.199219 159.90625 326.121094 159.847656 C 326.074219 159.964844 326.035156 160.074219 325.996094 160.1875 C 325.976562 160.230469 325.960938 160.273438 325.949219 160.316406 C 326.054688 160.324219 326.199219 160.375 326.269531 160.332031 "/><path style=" stroke:none;fill-rule:nonzero;fill:rgb(0%,0%,0%);fill-opacity:1;" d="M 169.210938 268.578125 C 169.550781 269.390625 170.257812 269.410156 171 269.140625 C 171.128906 269.09375 171.253906 269.023438 171.554688 268.886719 C 170.957031 268.152344 170.519531 267.601562 170.0625 267.039062 C 169.195312 267.230469 168.875 267.785156 169.210938 268.578125 "/><path style=" stroke:none;fill-rule:nonzero;fill:rgb(0%,0%,0%);fill-opacity:1;" d="M 270.207031 211.699219 C 270.285156 211.609375 270.273438 211.453125 270.300781 211.328125 C 270.136719 211.339844 269.972656 211.359375 269.808594 211.378906 C 269.828125 211.496094 269.855469 211.617188 269.875 211.738281 C 269.992188 211.726562 270.15625 211.761719 270.207031 211.699219 "/><path style=" stroke:none;fill-rule:nonzero;fill:rgb(0%,0%,0%);fill-opacity:1;" d="M 247.113281 218.476562 C 247.277344 218.902344 247.710938 219.226562 248.246094 219.851562 C 248.667969 219.121094 249.046875 218.714844 249.132812 218.25 C 249.007812 218.191406 248.882812 218.125 248.757812 218.066406 C 248.792969 217.863281 248.816406 217.671875 248.84375 217.476562 C 248.574219 217.234375 248.167969 217.117188 247.78125 217.234375 C 247.160156 217.429688 246.890625 217.914062 247.113281 218.476562 "/><path style=" stroke:none;fill-rule:nonzero;fill:rgb(0%,0%,0%);fill-opacity:1;" d="M 95.214844 182.828125 C 95.078125 182.824219 94.933594 183.066406 94.777344 183.210938 C 95.039062 183.308594 95.253906 183.40625 95.484375 183.453125 C 95.539062 183.457031 95.703125 183.191406 95.6875 183.175781 C 95.542969 183.03125 95.378906 182.828125 95.214844 182.828125 "/><path style=" stroke:none;fill-rule:nonzero;fill:rgb(0%,0%,0%);fill-opacity:1;" d="M 106.148438 154.363281 C 105.988281 154.546875 106.140625 155.085938 106.273438 155.40625 C 106.316406 155.511719 106.867188 155.570312 106.992188 155.453125 C 107.457031 155.007812 107.859375 154.488281 108.230469 153.960938 C 108.269531 153.898438 107.960938 153.597656 107.648438 153.199219 C 107.144531 153.578125 106.558594 153.898438 106.148438 154.363281 "/><path style=" stroke:none;fill-rule:nonzero;fill:rgb(0%,0%,0%);fill-opacity:1;" d="M 111.363281 96.125 C 111.011719 96.28125 110.703125 96.542969 110.378906 96.765625 C 110.628906 97.023438 110.886719 97.488281 111.128906 97.476562 C 111.410156 97.460938 111.671875 97.035156 111.941406 96.792969 C 111.683594 96.492188 111.429688 96.09375 111.363281 96.125 "/><path style=" stroke:none;fill-rule:nonzero;fill:rgb(0%,0%,0%);fill-opacity:1;" d="M 271.074219 234.292969 C 271.039062 234.246094 270.894531 234.277344 270.804688 234.273438 C 270.757812 234.390625 270.710938 234.507812 270.671875 234.632812 C 270.835938 234.640625 271.007812 234.644531 271.175781 234.652344 C 271.144531 234.527344 271.136719 234.390625 271.074219 234.292969 "/><path style=" stroke:none;fill-rule:nonzero;fill:rgb(0%,0%,0%);fill-opacity:1;" d="M 249.847656 201.199219 C 249.636719 200.917969 249.425781 200.632812 249.21875 200.351562 C 248.996094 200.628906 248.765625 200.902344 248.542969 201.171875 C 248.757812 201.300781 248.976562 201.425781 249.191406 201.558594 C 249.40625 201.433594 249.628906 201.316406 249.847656 201.199219 "/><path style=" stroke:none;fill-rule:nonzero;fill:rgb(0%,0%,0%);fill-opacity:1;" d="M 231.355469 252.671875 C 231.328125 252.871094 231.9375 253.367188 232.046875 253.308594 C 232.441406 253.105469 232.742188 252.726562 233.082031 252.410156 C 232.777344 252.222656 232.460938 252.039062 232.054688 251.796875 C 231.765625 252.128906 231.386719 252.382812 231.355469 252.671875 "/><path style=" stroke:none;fill-rule:nonzero;fill:rgb(0%,0%,0%);fill-opacity:1;" d="M 76.410156 148.523438 C 76.605469 148.667969 76.816406 148.9375 77 148.917969 C 77.214844 148.890625 77.410156 148.628906 77.613281 148.464844 C 77.320312 148.269531 77.019531 148.074219 76.722656 147.875 C 76.617188 148.09375 76.511719 148.308594 76.410156 148.523438 "/><path style=" stroke:none;fill-rule:nonzero;fill:rgb(0%,0%,0%);fill-opacity:1;" d="M 64.75 192.402344 C 65.011719 192.625 65.253906 192.90625 65.554688 193.039062 C 65.65625 193.078125 65.921875 192.71875 66.113281 192.539062 C 65.839844 192.292969 65.5625 192.035156 65.289062 191.78125 C 65.058594 192.050781 64.902344 192.226562 64.75 192.402344 "/><path style=" stroke:none;fill-rule:nonzero;fill:rgb(0%,0%,0%);fill-opacity:1;" d="M 249.132812 218.25 C 249.164062 218 249.230469 217.75 249.21875 217.503906 C 249.21875 217.425781 248.996094 217.359375 248.878906 217.285156 C 248.863281 217.34375 248.855469 217.410156 248.84375 217.476562 C 248.816406 217.671875 248.792969 217.863281 248.757812 218.066406 C 248.882812 218.125 249.007812 218.191406 249.132812 218.25 "/><path style=" stroke:none;fill-rule:nonzero;fill:rgb(0%,0%,0%);fill-opacity:1;" d="M 47.585938 174.636719 C 47.574219 174.722656 47.679688 174.828125 47.730469 174.925781 C 47.847656 174.828125 47.96875 174.722656 48.09375 174.617188 C 48.007812 174.558594 47.921875 174.5 47.835938 174.441406 C 47.75 174.507812 47.601562 174.558594 47.585938 174.636719 "/><path style=" stroke:none;fill-rule:nonzero;fill:rgb(0%,0%,0%);fill-opacity:1;" d="M 33.464844 151.804688 C 33.269531 152.074219 33.210938 152.792969 33.359375 152.886719 C 33.839844 153.1875 34.433594 153.285156 35.207031 153.539062 C 35.203125 152.792969 35.328125 152.355469 35.167969 152.058594 C 34.867188 151.4375 33.851562 151.289062 33.464844 151.804688 "/><path style=" stroke:none;fill-rule:nonzero;fill:rgb(0%,0%,0%);fill-opacity:1;" d="M 203.75 287.3125 C 203.71875 287.34375 203.816406 287.632812 203.882812 287.648438 C 204.113281 287.679688 204.347656 287.640625 204.582031 287.632812 C 204.480469 287.410156 204.378906 287.1875 204.277344 286.964844 C 204.097656 287.078125 203.902344 287.167969 203.75 287.3125 "/><path style=" stroke:none;fill-rule:nonzero;fill:rgb(0%,0%,0%);fill-opacity:1;" d="M 256.394531 148.097656 C 256.820312 148.242188 257.351562 148.15625 257.816406 148.058594 C 257.941406 148.027344 258.109375 147.46875 258.019531 147.351562 C 257.933594 147.253906 257.835938 147.140625 257.742188 147.042969 C 257.683594 147.050781 257.625 147.050781 257.574219 147.058594 C 257.546875 146.964844 257.519531 146.886719 257.488281 146.800781 C 257.3125 146.652344 257.121094 146.527344 256.910156 146.460938 C 256.609375 146.363281 256.175781 146.65625 255.4375 146.894531 C 255.910156 147.515625 256.085938 147.992188 256.394531 148.097656 "/><path style=" stroke:none;fill-rule:nonzero;fill:rgb(0%,0%,0%);fill-opacity:1;" d="M 111.894531 151.253906 C 112.03125 151.183594 112.167969 151.105469 112.308594 151.027344 C 112.1875 150.984375 112.070312 150.945312 111.945312 150.90625 C 111.925781 151.027344 111.882812 151.203125 111.894531 151.253906 "/><path style=" stroke:none;fill-rule:nonzero;fill:rgb(0%,0%,0%);fill-opacity:1;" d="M 253.535156 129.75 C 253.457031 129.535156 253.429688 129.253906 253.28125 129.128906 C 253.164062 129.035156 252.882812 129.140625 252.671875 129.160156 C 252.75 129.378906 252.777344 129.664062 252.925781 129.796875 C 253.039062 129.886719 253.328125 129.777344 253.535156 129.75 "/><path style=" stroke:none;fill-rule:nonzero;fill:rgb(0%,0%,0%);fill-opacity:1;" d="M 276.359375 293.972656 C 276.707031 293.152344 276.714844 292.183594 276.890625 291.175781 C 275.464844 291.300781 274.433594 291.640625 274.160156 292.886719 C 274.0625 293.324219 274.289062 294.023438 274.617188 294.3125 C 275.214844 294.835938 276.074219 294.648438 276.359375 293.972656 "/><path style=" stroke:none;fill-rule:nonzero;fill:rgb(0%,0%,0%);fill-opacity:1;" d="M 307.15625 199.140625 C 307.902344 199.5625 308.703125 199.875 309.671875 198.976562 C 309.210938 198.480469 308.824219 197.882812 308.28125 197.53125 C 307.914062 197.289062 307.246094 197.191406 306.847656 197.355469 C 306.316406 197.578125 306.527344 198.78125 307.15625 199.140625 "/><path style=" stroke:none;fill-rule:nonzero;fill:rgb(0%,0%,0%);fill-opacity:1;" d="M 326.625 196.804688 C 326.816406 196.476562 326.855469 196.0625 327.058594 195.34375 C 326.0625 195.574219 325.523438 195.585938 325.128906 195.828125 C 324.933594 195.953125 324.855469 196.585938 324.992188 196.835938 C 325.347656 197.476562 326.257812 197.4375 326.625 196.804688 "/><path style=" stroke:none;fill-rule:nonzero;fill:rgb(0%,0%,0%);fill-opacity:1;" d="M 54.632812 159.261719 C 54.191406 159.90625 54.238281 160.558594 54.972656 161.082031 C 55.308594 160.875 55.6875 160.691406 56 160.441406 C 56.546875 160.015625 56.550781 159.503906 56.054688 159.066406 C 55.542969 158.621094 54.984375 158.753906 54.632812 159.261719 "/><path style=" stroke:none;fill-rule:nonzero;fill:rgb(0%,0%,0%);fill-opacity:1;" d="M 289.945312 159.140625 C 290 158.464844 290.117188 157.972656 290.019531 157.527344 C 289.984375 157.390625 289.304688 157.226562 289.035156 157.34375 C 288.457031 157.59375 288.328125 158.164062 288.707031 158.652344 C 288.890625 158.890625 289.34375 158.917969 289.945312 159.140625 "/><path style=" stroke:none;fill-rule:nonzero;fill:rgb(0%,0%,0%);fill-opacity:1;" d="M 82.796875 175.390625 C 82.734375 175.601562 82.5625 175.882812 82.632812 176.019531 C 82.738281 176.195312 83.035156 176.273438 83.25 176.398438 C 83.324219 176.171875 83.519531 175.875 83.445312 175.726562 C 83.355469 175.546875 83.027344 175.496094 82.796875 175.390625 "/><path style=" stroke:none;fill-rule:nonzero;fill:rgb(0%,0%,0%);fill-opacity:1;" d="M 182.152344 135.566406 C 181.0625 135.769531 180.132812 136.03125 179.183594 136.097656 C 178.316406 136.15625 177.441406 135.992188 175.960938 135.886719 C 177.242188 137.410156 178.160156 138.5 179.125 139.644531 C 180.617188 138.851562 181.574219 137.535156 182.152344 135.566406 "/><path style=" stroke:none;fill-rule:nonzero;fill:rgb(0%,0%,0%);fill-opacity:1;" d="M 226.9375 174.460938 C 226.761719 174.722656 226.824219 175.496094 226.949219 175.542969 C 227.519531 175.730469 228.140625 175.746094 229.046875 175.855469 C 228.871094 175.148438 228.882812 174.695312 228.671875 174.5 C 228.148438 174.015625 227.46875 173.664062 226.9375 174.460938 "/><path style=" stroke:none;fill-rule:nonzero;fill:rgb(0%,0%,0%);fill-opacity:1;" d="M 289.285156 213.1875 C 289.289062 213.273438 289.914062 213.429688 289.960938 213.359375 C 290.128906 213.101562 290.175781 212.769531 290.261719 212.488281 C 289.867188 212.304688 289.632812 212.191406 289.402344 212.082031 C 289.351562 212.453125 289.25 212.828125 289.285156 213.1875 "/><path style=" stroke:none;fill-rule:nonzero;fill:rgb(0%,0%,0%);fill-opacity:1;" d="M 246.359375 283.964844 C 246.25 284.203125 245.988281 284.550781 246.058594 284.648438 C 246.25 284.894531 246.582031 285.046875 246.890625 285.257812 C 247.042969 284.890625 247.277344 284.515625 247.210938 284.445312 C 246.988281 284.226562 246.65625 284.117188 246.359375 283.964844 "/><path style=" stroke:none;fill-rule:nonzero;fill:rgb(0%,0%,0%);fill-opacity:1;" d="M 180.023438 172.792969 C 179.9375 172.976562 179.910156 173.191406 179.863281 173.394531 C 180.09375 173.402344 180.324219 173.414062 180.554688 173.421875 C 180.492188 173.210938 180.453125 172.988281 180.355469 172.804688 C 180.328125 172.753906 180.042969 172.753906 180.023438 172.792969 "/><path style=" stroke:none;fill-rule:nonzero;fill:rgb(0%,0%,0%);fill-opacity:1;" d="M 128.671875 168.40625 C 128.59375 168.707031 128.558594 169.027344 128.511719 169.339844 C 128.722656 169.355469 128.933594 169.375 129.28125 169.398438 C 129.1875 169 129.117188 168.671875 129.019531 168.351562 C 129.011719 168.332031 128.683594 168.359375 128.671875 168.40625 "/><path style=" stroke:none;fill-rule:nonzero;fill:rgb(0%,0%,0%);fill-opacity:1;" d="M 186.980469 153.984375 C 186.957031 153.925781 186.628906 153.933594 186.609375 153.980469 C 186.515625 154.183594 186.496094 154.410156 186.445312 154.632812 C 186.699219 154.652344 186.957031 154.679688 187.238281 154.710938 C 187.144531 154.425781 187.097656 154.183594 186.980469 153.984375 "/><path style=" stroke:none;fill-rule:nonzero;fill:rgb(0%,0%,0%);fill-opacity:1;" d="M 257.0625 187.523438 C 257.070312 187.589844 257.21875 187.636719 257.3125 187.695312 C 257.316406 187.683594 257.324219 187.667969 257.332031 187.65625 C 257.285156 187.523438 257.257812 187.375 257.207031 187.242188 C 257.152344 187.339844 257.054688 187.441406 257.0625 187.523438 "/><path style=" stroke:none;fill-rule:nonzero;fill:rgb(0%,0%,0%);fill-opacity:1;" d="M 267.011719 266.320312 L 266.761719 266.382812 L 266.898438 266.546875 Z M 267.011719 266.320312 "/><path style=" stroke:none;fill-rule:nonzero;fill:rgb(0%,0%,0%);fill-opacity:1;" d="M 257.828125 187.964844 L 258.117188 188.171875 L 258.070312 187.839844 Z M 257.828125 187.964844 "/><path style=" stroke:none;fill-rule:nonzero;fill:rgb(0%,0%,0%);fill-opacity:1;" d="M 241.261719 84.535156 C 241.695312 84.824219 242.519531 84.710938 243.082031 84.515625 C 243.28125 84.449219 243.410156 83.363281 243.1875 83.152344 C 242.789062 82.78125 242.101562 82.722656 241.113281 82.386719 C 241.15625 83.414062 240.96875 84.339844 241.261719 84.535156 "/><path style=" stroke:none;fill-rule:nonzero;fill:rgb(0%,0%,0%);fill-opacity:1;" d="M 98.265625 216.90625 C 98.09375 217.011719 97.917969 217.089844 97.753906 217.183594 C 97.792969 217.46875 97.824219 217.765625 97.851562 218.058594 C 98.101562 217.972656 98.347656 217.890625 98.570312 217.75 C 98.609375 217.71875 98.414062 217.304688 98.265625 216.90625 "/><path style=" stroke:none;fill-rule:nonzero;fill:rgb(0%,0%,0%);fill-opacity:1;" d="M 211.898438 94.4375 C 212.121094 94.535156 212.40625 94.488281 212.664062 94.5 C 212.769531 94.429688 212.878906 94.359375 212.984375 94.285156 C 212.761719 94.023438 212.578125 93.625 212.296875 93.53125 C 212.085938 93.453125 211.746094 93.769531 211.464844 93.914062 C 211.601562 94.097656 211.714844 94.34375 211.898438 94.4375 "/><path style=" stroke:none;fill-rule:nonzero;fill:rgb(0%,0%,0%);fill-opacity:1;" d="M 187.695312 259.882812 C 189.601562 258.984375 190.210938 258.703125 191.1875 258.835938 C 191.207031 258.769531 191.226562 258.710938 191.246094 258.644531 C 191.488281 257.988281 191.871094 257.382812 192.316406 256.792969 C 191.691406 256.621094 191.011719 256.476562 190.289062 256.5625 C 188.546875 256.777344 189.628906 253.804688 187.433594 254.605469 C 188.285156 257.300781 188.285156 257.300781 187.695312 259.882812 "/><path style=" stroke:none;fill-rule:nonzero;fill:rgb(0%,0%,0%);fill-opacity:1;" d="M 210.160156 223.265625 C 210.914062 223.691406 211.707031 224.003906 212.683594 223.101562 C 212.226562 222.609375 211.839844 222.015625 211.292969 221.660156 C 210.921875 221.417969 210.257812 221.320312 209.859375 221.484375 C 209.320312 221.699219 209.53125 222.910156 210.160156 223.265625 "/><path style=" stroke:none;fill-rule:nonzero;fill:rgb(0%,0%,0%);fill-opacity:1;" d="M 171.0625 263.980469 C 171.183594 263.957031 171.203125 263.574219 171.265625 263.359375 C 170.925781 263.300781 170.585938 263.242188 170.238281 263.183594 C 170.191406 263.535156 170.160156 263.753906 170.132812 263.976562 C 170.449219 263.988281 170.777344 264.058594 171.0625 263.980469 "/><path style=" stroke:none;fill-rule:nonzero;fill:rgb(0%,0%,0%);fill-opacity:1;" d="M 117.636719 225.765625 C 117.496094 225.675781 117.175781 225.871094 116.941406 225.9375 C 117.058594 226.238281 117.15625 226.558594 117.328125 226.828125 C 117.351562 226.867188 117.738281 226.671875 118.121094 226.527344 C 117.957031 226.238281 117.859375 225.910156 117.636719 225.765625 "/><path style=" stroke:none;fill-rule:nonzero;fill:rgb(0%,0%,0%);fill-opacity:1;" d="M 127.425781 154.890625 C 127.289062 155.074219 127.195312 155.300781 127.089844 155.503906 C 127.289062 155.511719 127.476562 155.523438 127.667969 155.53125 C 127.707031 155.328125 127.738281 155.132812 127.78125 154.929688 C 127.65625 154.914062 127.464844 154.84375 127.425781 154.890625 "/><path style=" stroke:none;fill-rule:nonzero;fill:rgb(0%,0%,0%);fill-opacity:1;" d="M 137.253906 176.695312 C 137.078125 176.996094 136.910156 177.304688 136.621094 177.800781 C 137.175781 177.832031 137.539062 177.914062 137.863281 177.839844 C 137.984375 177.808594 138.148438 177.304688 138.066406 177.210938 C 137.863281 176.976562 137.53125 176.859375 137.253906 176.695312 "/><path style=" stroke:none;fill-rule:nonzero;fill:rgb(0%,0%,0%);fill-opacity:1;" d="M 263.417969 103.210938 C 263.300781 103.222656 263.109375 103.199219 263.078125 103.261719 C 262.984375 103.433594 262.953125 103.648438 262.902344 103.839844 C 263.105469 103.851562 263.300781 103.867188 263.503906 103.878906 C 263.476562 103.65625 263.453125 103.433594 263.417969 103.210938 "/><path style=" stroke:none;fill-rule:nonzero;fill:rgb(0%,0%,0%);fill-opacity:1;" d="M 243.503906 82.722656 C 243.46875 82.65625 243.3125 82.65625 243.207031 82.628906 C 243.203125 82.800781 243.195312 82.976562 243.1875 83.152344 C 243.28125 83.121094 243.378906 83.082031 243.46875 83.050781 C 243.488281 82.9375 243.542969 82.808594 243.503906 82.722656 "/><path style=" stroke:none;fill-rule:nonzero;fill:rgb(0%,0%,0%);fill-opacity:1;" d="M 140.28125 143.121094 C 140.140625 143.304688 140.058594 143.527344 139.949219 143.730469 C 140.140625 143.742188 140.328125 143.75 140.527344 143.757812 C 140.566406 143.5625 140.605469 143.359375 140.636719 143.15625 C 140.511719 143.140625 140.316406 143.070312 140.28125 143.121094 "/><path style=" stroke:none;fill-rule:nonzero;fill:rgb(0%,0%,0%);fill-opacity:1;" d="M 257.207031 187.242188 C 257.257812 187.375 257.285156 187.523438 257.332031 187.65625 C 257.363281 187.746094 257.402344 187.828125 257.460938 187.878906 C 257.574219 187.976562 257.863281 187.859375 258.070312 187.839844 C 257.992188 187.625 257.964844 187.339844 257.816406 187.21875 C 257.699219 187.117188 257.414062 187.230469 257.207031 187.242188 "/><path style=" stroke:none;fill-rule:nonzero;fill:rgb(0%,0%,0%);fill-opacity:1;" d="M 120.839844 258.285156 C 123.027344 257.230469 122.863281 255.804688 123.007812 254.34375 C 122.476562 254.289062 121.980469 254.25 121.460938 254.199219 C 121.273438 255.441406 121.113281 256.496094 120.839844 258.285156 "/><path style=" stroke:none;fill-rule:nonzero;fill:rgb(0%,0%,0%);fill-opacity:1;" d="M 318.480469 125.742188 C 318.054688 126.121094 317.15625 125.914062 317.109375 127.09375 C 317.855469 126.992188 318.261719 126.488281 318.714844 126.109375 C 318.726562 126.097656 318.5625 125.867188 318.480469 125.742188 "/><path style=" stroke:none;fill-rule:nonzero;fill:rgb(0%,0%,0%);fill-opacity:1;" d="M 226.523438 249.855469 C 226.4375 249.613281 226.414062 249.234375 226.261719 249.175781 C 226.070312 249.109375 225.777344 249.300781 225.527344 249.378906 C 225.621094 249.628906 225.703125 249.875 225.796875 250.125 C 226.039062 250.035156 226.28125 249.949219 226.523438 249.855469 "/><path style=" stroke:none;fill-rule:nonzero;fill:rgb(0%,0%,0%);fill-opacity:1;" d="M 180.59375 227.101562 C 180.742188 227.21875 181.234375 227.195312 181.261719 227.117188 C 181.386719 226.800781 181.386719 226.433594 181.46875 225.761719 C 180.898438 226.085938 180.558594 226.207031 180.351562 226.441406 C 180.269531 226.53125 180.429688 226.972656 180.59375 227.101562 "/><path style=" stroke:none;fill-rule:nonzero;fill:rgb(0%,0%,0%);fill-opacity:1;" d="M 246.375 224.894531 C 246.261719 224.84375 246.144531 224.789062 246.027344 224.730469 C 245.980469 224.816406 245.875 224.914062 245.890625 224.988281 C 245.921875 225.113281 246.019531 225.214844 246.09375 225.328125 C 246.191406 225.183594 246.28125 225.039062 246.375 224.894531 "/><path style=" stroke:none;fill-rule:nonzero;fill:rgb(0%,0%,0%);fill-opacity:1;" d="M 248.128906 248.011719 C 248.261719 248.117188 248.390625 248.214844 248.523438 248.316406 C 248.582031 248.207031 248.640625 248.09375 248.699219 247.984375 C 248.613281 247.917969 248.515625 247.792969 248.445312 247.808594 C 248.328125 247.828125 248.234375 247.9375 248.128906 248.011719 "/><path style=" stroke:none;fill-rule:nonzero;fill:rgb(0%,0%,0%);fill-opacity:1;" d="M 205.113281 274.960938 C 205.003906 275.007812 204.890625 275.046875 204.78125 275.09375 C 204.886719 275.21875 204.988281 275.34375 205.101562 275.46875 C 205.160156 275.367188 205.246094 275.269531 205.273438 275.160156 C 205.277344 275.105469 205.167969 275.027344 205.113281 274.960938 "/><path style=" stroke:none;fill-rule:nonzero;fill:rgb(0%,0%,0%);fill-opacity:1;" d="M 156.078125 258.191406 C 156.039062 258.257812 156.179688 258.429688 156.351562 258.78125 C 156.746094 258.78125 157.296875 258.886719 157.742188 258.722656 C 157.976562 258.636719 158.03125 258.074219 158.171875 257.726562 C 157.695312 257.582031 157.210938 257.328125 156.738281 257.355469 C 156.496094 257.367188 156.273438 257.886719 156.078125 258.191406 "/><path style=" stroke:none;fill-rule:nonzero;fill:rgb(0%,0%,0%);fill-opacity:1;" d="M 217.65625 112.261719 C 217.761719 111.820312 217.820312 111.351562 217.773438 110.898438 C 217.769531 110.828125 217.140625 110.820312 216.445312 110.746094 C 216.660156 111.429688 216.753906 111.878906 216.960938 112.265625 C 217.023438 112.363281 217.636719 112.324219 217.65625 112.261719 "/><path style=" stroke:none;fill-rule:nonzero;fill:rgb(0%,0%,0%);fill-opacity:1;" d="M 300.203125 232.503906 C 300.457031 231.96875 300.71875 231.4375 300.988281 230.898438 C 300.71875 230.644531 300.4375 230.382812 300.136719 230.09375 C 300.148438 231.121094 300.203125 231.863281 300.203125 232.503906 "/><path style=" stroke:none;fill-rule:nonzero;fill:rgb(0%,0%,0%);fill-opacity:1;" d="M 50.472656 98.207031 C 50.371094 98.167969 50.023438 98.496094 49.953125 98.710938 C 49.820312 99.085938 49.75 99.511719 49.78125 99.902344 C 49.800781 100.105469 50.058594 100.386719 50.269531 100.449219 C 50.484375 100.511719 50.773438 100.367188 51.265625 100.265625 C 51.308594 99.832031 51.480469 99.308594 51.375 98.851562 C 51.304688 98.566406 50.8125 98.34375 50.472656 98.207031 "/><path style=" stroke:none;fill-rule:nonzero;fill:rgb(0%,0%,0%);fill-opacity:1;" d="M 49.535156 110.464844 C 49.566406 110.714844 49.585938 110.964844 49.613281 111.210938 C 49.941406 111.152344 50.269531 111.09375 50.589844 111.03125 C 50.492188 110.792969 50.453125 110.445312 50.273438 110.347656 C 50.105469 110.25 49.789062 110.414062 49.535156 110.464844 "/><path style=" stroke:none;fill-rule:nonzero;fill:rgb(0%,0%,0%);fill-opacity:1;" d="M 226.988281 85.621094 C 227.066406 85.648438 227.1875 85.542969 227.285156 85.5 C 227.269531 85.394531 227.257812 85.289062 227.246094 85.183594 C 227.085938 85.242188 226.929688 85.300781 226.78125 85.359375 C 226.84375 85.453125 226.898438 85.597656 226.988281 85.621094 "/><path style=" stroke:none;fill-rule:nonzero;fill:rgb(0%,0%,0%);fill-opacity:1;" d="M 277.558594 227.875 C 277.765625 227.417969 277.941406 226.945312 278.085938 226.472656 C 278.117188 226.367188 277.988281 226.21875 277.925781 226.09375 C 277.671875 226.171875 277.207031 226.21875 277.195312 226.335938 C 277.109375 226.832031 277.160156 227.359375 277.179688 227.867188 C 277.179688 227.882812 277.539062 227.921875 277.558594 227.875 "/><path style=" stroke:none;fill-rule:nonzero;fill:rgb(0%,0%,0%);fill-opacity:1;" d="M 153.089844 172.117188 C 153.074219 172.214844 153.070312 172.308594 153.054688 172.40625 C 153.246094 172.398438 153.441406 172.417969 153.617188 172.371094 C 153.671875 172.359375 153.722656 172.078125 153.691406 172.058594 C 153.558594 171.972656 153.414062 171.914062 153.273438 171.863281 C 153.21875 171.84375 153.167969 171.816406 153.113281 171.796875 C 153.109375 171.902344 153.09375 172.011719 153.089844 172.117188 "/><path style=" stroke:none;fill-rule:nonzero;fill:rgb(0%,0%,0%);fill-opacity:1;" d="M 231.578125 221.832031 C 231.464844 221.601562 231.40625 221.28125 231.222656 221.183594 C 231.085938 221.109375 230.789062 221.3125 230.566406 221.390625 C 230.566406 221.628906 230.574219 221.855469 230.574219 222.085938 C 230.90625 222 231.242188 221.917969 231.578125 221.832031 "/><path style=" stroke:none;fill-rule:nonzero;fill:rgb(0%,0%,0%);fill-opacity:1;" d="M 216.554688 308.1875 C 216.554688 307.992188 216.5625 307.800781 216.570312 307.613281 C 216.351562 307.703125 216.125 307.777344 215.933594 307.90625 C 215.882812 307.9375 215.941406 308.140625 215.945312 308.265625 C 216.148438 308.242188 216.351562 308.214844 216.554688 308.1875 "/><path style=" stroke:none;fill-rule:nonzero;fill:rgb(0%,0%,0%);fill-opacity:1;" d="M 232.75 305.960938 C 232.636719 306 232.472656 306 232.429688 306.074219 C 232.375 306.160156 232.421875 306.308594 232.421875 306.433594 C 232.53125 306.394531 232.652344 306.347656 232.769531 306.308594 C 232.761719 306.191406 232.757812 306.078125 232.75 305.960938 "/><path style=" stroke:none;fill-rule:nonzero;fill:rgb(0%,0%,0%);fill-opacity:1;" d="M 236.476562 337.359375 C 238.039062 336.601562 238.246094 335.355469 238.050781 333.949219 C 237.277344 334.609375 236.640625 335.46875 235.296875 334.871094 C 234.503906 334.523438 234.140625 335.355469 233.949219 336.28125 C 234.8125 336.648438 235.664062 337.011719 236.476562 337.359375 "/><path style=" stroke:none;fill-rule:nonzero;fill:rgb(0%,0%,0%);fill-opacity:1;" d="M 153.382812 202.675781 C 153.496094 202.664062 153.636719 201.949219 153.546875 201.625 C 153.332031 200.882812 152.417969 200.484375 151.96875 200.929688 C 151.652344 201.242188 151.59375 201.8125 151.28125 202.625 C 152.214844 202.671875 152.804688 202.761719 153.382812 202.675781 "/><path style=" stroke:none;fill-rule:nonzero;fill:rgb(0%,0%,0%);fill-opacity:1;" d="M 286.480469 248.894531 C 286.773438 249.027344 287.136719 249.027344 287.46875 249.070312 C 287.5 248.828125 287.632812 248.507812 287.527344 248.359375 C 287.316406 248.050781 286.972656 247.832031 286.523438 247.441406 C 286.484375 248.421875 286.394531 248.855469 286.480469 248.894531 "/><path style=" stroke:none;fill-rule:nonzero;fill:rgb(0%,0%,0%);fill-opacity:1;" d="M 190.59375 62.402344 C 190.59375 62.34375 189.621094 62.128906 189.578125 62.210938 C 189.308594 62.769531 189.144531 63.386719 189.03125 64 C 189.027344 64.046875 189.6875 64.210938 190.304688 64.40625 C 190.433594 63.640625 190.566406 63.023438 190.59375 62.402344 "/><path style=" stroke:none;fill-rule:nonzero;fill:rgb(0%,0%,0%);fill-opacity:1;" d="M 163.214844 97.101562 C 163.769531 96.605469 164.253906 96.027344 164.863281 95.367188 C 163.128906 95.039062 162.386719 95.417969 162.425781 96.503906 C 162.433594 96.722656 163.160156 97.148438 163.214844 97.101562 "/><path style=" stroke:none;fill-rule:nonzero;fill:rgb(0%,0%,0%);fill-opacity:1;" d="M 67.921875 117.753906 C 67.75 118.042969 67.785156 118.453125 67.730469 118.808594 C 68.25 118.820312 68.761719 118.835938 69.410156 118.847656 C 69.34375 118.210938 69.457031 117.683594 69.246094 117.453125 C 68.753906 116.921875 68.222656 117.238281 67.921875 117.753906 "/><path style=" stroke:none;fill-rule:nonzero;fill:rgb(0%,0%,0%);fill-opacity:1;" d="M 95.164062 117.386719 C 94.980469 117.480469 94.890625 118.207031 95.046875 118.421875 C 95.210938 118.644531 95.871094 118.808594 96.074219 118.664062 C 97.050781 117.984375 97.941406 117.179688 98.867188 116.417969 C 98.730469 116.28125 98.589844 116.144531 98.453125 116 C 97.347656 116.453125 96.226562 116.855469 95.164062 117.386719 "/><path style=" stroke:none;fill-rule:nonzero;fill:rgb(0%,0%,0%);fill-opacity:1;" d="M 135.609375 108.992188 C 134.226562 108.273438 132.824219 108.363281 130.546875 109.253906 C 132.714844 109.929688 133.875 110.355469 135.066406 110.625 C 135.355469 110.6875 135.9375 110.328125 136.035156 110.039062 C 136.136719 109.757812 135.886719 109.136719 135.609375 108.992188 "/><path style=" stroke:none;fill-rule:nonzero;fill:rgb(0%,0%,0%);fill-opacity:1;" d="M 149.429688 69.617188 C 149.515625 69.808594 149.835938 69.878906 150.054688 70.003906 C 150.160156 69.675781 150.265625 69.355469 150.367188 69.03125 C 150.140625 69.011719 149.910156 68.988281 149.675781 68.976562 C 149.582031 69.191406 149.359375 69.476562 149.429688 69.617188 "/><path style=" stroke:none;fill-rule:nonzero;fill:rgb(0%,0%,0%);fill-opacity:1;" d="M 204.820312 151.253906 C 204.222656 151.835938 204.105469 152.558594 204.890625 152.917969 C 205.820312 153.355469 206.898438 153.5 207.914062 153.777344 C 208.011719 153.519531 208.117188 153.265625 208.214844 153.007812 C 207.355469 152.40625 206.503906 151.777344 205.605469 151.207031 C 205.429688 151.097656 205.09375 151.234375 204.820312 151.253906 "/><path style=" stroke:none;fill-rule:nonzero;fill:rgb(0%,0%,0%);fill-opacity:1;" d="M 139.214844 88.601562 C 138.835938 88.386719 138.316406 88.425781 137.617188 88.320312 C 137.761719 88.996094 137.765625 89.597656 137.925781 89.636719 C 138.363281 89.753906 138.867188 89.644531 139.347656 89.625 C 139.308594 89.261719 139.390625 88.695312 139.214844 88.601562 "/><path style=" stroke:none;fill-rule:nonzero;fill:rgb(0%,0%,0%);fill-opacity:1;" d="M 109.46875 282.472656 C 109.488281 282.683594 109.503906 282.898438 109.523438 283.113281 C 109.726562 283.054688 109.933594 283.015625 110.125 282.925781 C 110.164062 282.90625 110.144531 282.605469 110.09375 282.585938 C 109.894531 282.511719 109.679688 282.507812 109.46875 282.472656 "/><path style=" stroke:none;fill-rule:nonzero;fill:rgb(0%,0%,0%);fill-opacity:1;" d="M 209.320312 188.0625 C 209.339844 187.9375 209.425781 187.746094 209.378906 187.714844 C 209.203125 187.585938 208.992188 187.492188 208.796875 187.386719 C 208.851562 187.609375 208.890625 187.832031 208.980469 188.035156 C 209 188.089844 209.203125 188.054688 209.320312 188.0625 "/><path style=" stroke:none;fill-rule:nonzero;fill:rgb(0%,0%,0%);fill-opacity:1;" d="M 249.820312 169.296875 C 249.925781 169.210938 249.867188 168.929688 249.886719 168.726562 C 249.636719 168.816406 249.402344 168.882812 249.199219 168.992188 C 249.152344 169.019531 249.203125 169.339844 249.222656 169.339844 C 249.425781 169.355469 249.691406 169.398438 249.820312 169.296875 "/><path style=" stroke:none;fill-rule:nonzero;fill:rgb(0%,0%,0%);fill-opacity:1;" d="M 180.113281 174.878906 C 180.304688 174.554688 180.351562 174.140625 180.554688 173.421875 C 179.558594 173.648438 179.019531 173.664062 178.625 173.910156 C 178.429688 174.03125 178.34375 174.664062 178.480469 174.917969 C 178.84375 175.5625 179.746094 175.523438 180.113281 174.878906 "/><path style=" stroke:none;fill-rule:nonzero;fill:rgb(0%,0%,0%);fill-opacity:1;" d="M 202.324219 105.523438 C 202.441406 105.546875 202.691406 105.476562 202.695312 105.425781 C 202.792969 104.632812 202.886719 103.828125 202.90625 103.027344 C 202.90625 102.921875 202.472656 102.785156 202.230469 102.714844 C 202.140625 102.695312 202 102.824219 201.917969 102.871094 C 201.941406 103.683594 201.960938 104.476562 202.015625 105.265625 C 202.019531 105.359375 202.199219 105.488281 202.324219 105.523438 "/></g></svg>